<?xml version="1.0" encoding="utf-8"?>
<!-- Generator: Adobe Illustrator 15.0.0, SVG Export Plug-In . SVG Version: 6.00 Build 0)  -->
<!DOCTYPE svg PUBLIC "-//W3C//DTD SVG 1.1//EN" "http://www.w3.org/Graphics/SVG/1.1/DTD/svg11.dtd">
<svg version="1.1" id="Calque_1" xmlns="http://www.w3.org/2000/svg" xmlns:xlink="http://www.w3.org/1999/xlink" x="0px" y="0px"
	 width="595.28px" height="841.89px" viewBox="0 0 595.28 841.89" enable-background="new 0 0 595.28 841.89" xml:space="preserve">
<path fill="#F9DF31" d="M441,421c0,79.253-64.471,143.5-144,143.5c-79.529,0-144-64.247-144-143.5s64.471-143.5,144-143.5
	C376.529,277.5,441,341.747,441,421"/>
<path fill="#010101" d="M218.777,443.323c-4.826-4.891-7.24-11.326-7.24-19.307c0-7.979,2.477-14.351,7.433-19.114
	c4.955-4.762,10.86-7.143,17.714-7.143s12.372,2.896,16.556,8.688v-28.188h10.812v71.629H253.24v-7.724
	c-3.992,5.663-9.815,8.495-17.473,8.495C229.266,450.66,223.604,448.215,218.777,443.323 M222.349,424.451
	c0,4.923,1.576,8.929,4.73,12.018c3.152,3.09,6.854,4.634,11.102,4.634c4.247,0,7.85-1.56,10.811-4.682
	c2.96-3.121,4.44-7.127,4.44-12.019c0-4.889-1.48-8.977-4.44-12.26c-2.961-3.282-6.598-4.922-10.908-4.922
	c-4.313,0-8.012,1.64-11.102,4.922C223.893,415.425,222.349,419.527,222.349,424.451"/>
<path fill="#010101" d="M321.769,442.985c-5.149,5.116-11.584,7.675-19.306,7.675c-7.723,0-14.159-2.559-19.307-7.675
	c-5.15-5.116-7.723-11.374-7.723-18.776c0-7.4,2.573-13.659,7.723-18.776c5.148-5.116,11.584-7.674,19.307-7.674
	c7.722,0,14.156,2.558,19.306,7.674c5.147,5.117,7.724,11.376,7.724,18.776C329.492,431.611,326.916,437.869,321.769,442.985
	 M290.83,436.324c3.056,3.122,6.934,4.682,11.633,4.682c4.697,0,8.574-1.56,11.632-4.682c3.056-3.12,4.585-7.158,4.585-12.115
	c0-4.954-1.529-8.992-4.585-12.114c-3.058-3.122-6.935-4.683-11.632-4.683c-4.699,0-8.577,1.561-11.633,4.683
	c-3.057,3.122-4.585,7.16-4.585,12.114C286.245,429.166,287.772,433.204,290.83,436.324"/>
<path fill="#010101" d="M352.853,407.22v25.292c0,2.446,0.644,4.392,1.931,5.84c1.286,1.448,3.09,2.172,5.405,2.172
	c2.317,0,4.538-1.125,6.662-3.379l4.44,7.627c-3.799,3.411-7.998,5.116-12.599,5.116c-4.603,0-8.528-1.593-11.776-4.778
	c-3.25-3.186-4.875-7.481-4.875-12.888V407.22h-6.467v-8.688h6.467V382.41h10.812v16.122h13.515v8.688H352.853z"/>
</svg>
